<?xml version="1.0" encoding="UTF-8" standalone="no"?>
<!-- Created with Inkscape (http://www.inkscape.org/) -->

<svg
   xmlns:dc="http://purl.org/dc/elements/1.1/"
   xmlns:cc="http://creativecommons.org/ns#"
   xmlns:rdf="http://www.w3.org/1999/02/22-rdf-syntax-ns#"
   xmlns:svg="http://www.w3.org/2000/svg"
   xmlns="http://www.w3.org/2000/svg"
   xmlns:sodipodi="http://sodipodi.sourceforge.net/DTD/sodipodi-0.dtd"
   xmlns:inkscape="http://www.inkscape.org/namespaces/inkscape"
   sodipodi:docname="sides.svg"
   inkscape:version="0.92.3 (2405546, 2018-03-11)"
   id="svg3087"
   version="1.1"
   viewBox="0 0 609.6 304.80001"
   height="12in"
   width="24in">
  <defs
     id="defs3081" />
  <sodipodi:namedview
     inkscape:snap-smooth-nodes="true"
     inkscape:bbox-nodes="true"
     inkscape:snap-bbox="false"
     inkscape:window-maximized="1"
     inkscape:window-y="-8"
     inkscape:window-x="-8"
     inkscape:window-height="1017"
     inkscape:window-width="1920"
     inkscape:snap-page="true"
     showgrid="false"
     inkscape:current-layer="layer1"
     inkscape:document-units="mm"
     inkscape:cy="509.49554"
     inkscape:cx="530.25928"
     inkscape:zoom="0.49497475"
     inkscape:pageshadow="2"
     inkscape:pageopacity="0.0"
     borderopacity="1.0"
     bordercolor="#666666"
     pagecolor="#ffffff"
     id="base"
     units="in" />
  <metadata
     id="metadata3084">
    <rdf:RDF>
      <cc:Work
         rdf:about="">
        <dc:format>image/svg+xml</dc:format>
        <dc:type
           rdf:resource="http://purl.org/dc/dcmitype/StillImage" />
        <dc:title></dc:title>
      </cc:Work>
    </rdf:RDF>
  </metadata>
  <g
     inkscape:label="Calque 1"
     inkscape:groupmode="layer"
     id="layer1"
     transform="translate(0,7.8000002)">
    <path
       style="fill:none;stroke:#ff0000;stroke-width:0.1;stroke-linecap:butt;stroke-linejoin:miter;stroke-miterlimit:4;stroke-dasharray:none;stroke-opacity:1"
       d="m 4.7625024,20.645834 -1.9e-6,98.999996"
       id="path1536"
       inkscape:connector-curvature="0" />
    <path
       style="fill:none;stroke:#ff0000;stroke-width:0.1;stroke-linecap:butt;stroke-linejoin:miter;stroke-miterlimit:4;stroke-dasharray:none;stroke-opacity:1"
       d="M 290.76251,20.645834 V 119.64583"
       id="path1534"
       inkscape:connector-curvature="0" />
    <path
       style="fill:none;stroke:#ff0000;stroke-width:0.1;stroke-linecap:butt;stroke-linejoin:miter;stroke-miterlimit:4;stroke-dasharray:none;stroke-opacity:1"
       d="m 265.76248,-4.35417 20.00001,3.1e-6"
       id="path1532"
       inkscape:connector-curvature="0" />
    <path
       style="fill:none;stroke:#ff0000;stroke-width:0.1;stroke-linecap:butt;stroke-linejoin:miter;stroke-miterlimit:4;stroke-dasharray:none;stroke-opacity:1"
       d="M 9.7625013,-4.3541669 29.762498,-4.35417"
       id="path1530"
       inkscape:connector-curvature="0" />
    <path
       inkscape:connector-curvature="0"
       style="fill:none;stroke:#ff0000;stroke-width:0.1;stroke-linecap:butt;stroke-linejoin:miter;stroke-miterlimit:4;stroke-dasharray:none;stroke-opacity:1"
       d="M 285.76248,144.64579 H 9.7624953"
       id="path1546" />
    <path
       inkscape:connector-curvature="0"
       style="fill:none;stroke:#ff0000;stroke-width:0.1;stroke-linecap:butt;stroke-linejoin:miter;stroke-miterlimit:4;stroke-dasharray:none;stroke-opacity:1"
       d="m 4.7625065,268.64579 v -99"
       id="path1544" />
    <path
       inkscape:connector-curvature="0"
       style="fill:none;stroke:#ff0000;stroke-width:0.1;stroke-linecap:butt;stroke-linejoin:miter;stroke-miterlimit:4;stroke-dasharray:none;stroke-opacity:1"
       d="M 29.762505,293.64579 H 9.7624953"
       id="path1542" />
    <path
       inkscape:connector-curvature="0"
       style="fill:none;stroke:#ff0000;stroke-width:0.1;stroke-linecap:butt;stroke-linejoin:miter;stroke-miterlimit:4;stroke-dasharray:none;stroke-opacity:1"
       d="m 285.76248,293.64579 h -20"
       id="path1540" />
    <path
       inkscape:connector-curvature="0"
       style="fill:none;stroke:#ff0000;stroke-width:0.1;stroke-linecap:butt;stroke-linejoin:miter;stroke-miterlimit:4;stroke-dasharray:none;stroke-opacity:1"
       d="m 290.76248,169.64579 v 99"
       id="path1538" />
    <path
       inkscape:connector-curvature="0"
       style="fill:none;stroke:#ff0000;stroke-width:0.1;stroke-linecap:butt;stroke-linejoin:miter;stroke-miterlimit:4;stroke-dasharray:none;stroke-opacity:1"
       d="m 21.262505,286.14575 c -0.831,0 -1.5,-0.669 -1.5,-1.5 0,-0.831 0.669,-1.5 1.5,-1.5 0.831,0 1.5,0.669 1.5,1.5 0,0.831 -0.669,1.5 -1.5,1.5 z"
       id="path1528" />
    <path
       inkscape:connector-curvature="0"
       style="fill:none;stroke:#ff0000;stroke-width:0.1;stroke-linecap:butt;stroke-linejoin:miter;stroke-miterlimit:4;stroke-dasharray:none;stroke-opacity:1"
       d="m 274.26248,286.14575 c -0.831,0 -1.5,-0.669 -1.5,-1.5 0,-0.831 0.669,-1.5 1.5,-1.5 0.831,0 1.5,0.669 1.5,1.5 0,0.831 -0.669,1.5 -1.5,1.5 z"
       id="path1526" />
    <path
       inkscape:connector-curvature="0"
       style="fill:none;stroke:#ff0000;stroke-width:0.1;stroke-linecap:butt;stroke-linejoin:miter;stroke-miterlimit:4;stroke-dasharray:none;stroke-opacity:1"
       d="m 274.26248,153.14575 c -0.831,0 -1.5,-0.669 -1.5,-1.5 0,-0.831 0.669,-1.5 1.5,-1.5 0.831,0 1.5,0.669 1.5,1.5 0,0.831 -0.669,1.5 -1.5,1.5 z"
       id="path1524" />
    <path
       inkscape:connector-curvature="0"
       style="fill:none;stroke:#ff0000;stroke-width:0.1;stroke-linecap:butt;stroke-linejoin:miter;stroke-miterlimit:4;stroke-dasharray:none;stroke-opacity:1"
       d="m 189.92915,153.14575 c -0.831,0 -1.5,-0.669 -1.5,-1.5 0,-0.831 0.669,-1.5 1.5,-1.5 0.831,0 1.5,0.669 1.5,1.5 0,0.831 -0.669,1.5 -1.5,1.5 z"
       id="path1522" />
    <path
       inkscape:connector-curvature="0"
       style="fill:none;stroke:#ff0000;stroke-width:0.1;stroke-linecap:butt;stroke-linejoin:miter;stroke-miterlimit:4;stroke-dasharray:none;stroke-opacity:1"
       d="m 105.59582,153.14575 c -0.831,0 -1.5,-0.669 -1.5,-1.5 0,-0.831 0.669,-1.5 1.5,-1.5 0.831,0 1.5,0.669 1.5,1.5 0,0.831 -0.669,1.5 -1.5,1.5 z"
       id="path1520" />
    <path
       inkscape:connector-curvature="0"
       style="fill:none;stroke:#ff0000;stroke-width:0.1;stroke-linecap:butt;stroke-linejoin:miter;stroke-miterlimit:4;stroke-dasharray:none;stroke-opacity:1"
       d="m 21.262505,153.14575 c -0.831,0 -1.5,-0.669 -1.5,-1.5 0,-0.831 0.669,-1.5 1.5,-1.5 0.831,0 1.5,0.669 1.5,1.5 0,0.831 -0.669,1.5 -1.5,1.5 z"
       id="path1518" />
    <path
       inkscape:connector-curvature="0"
       style="fill:none;stroke:#ff0000;stroke-width:0.1;stroke-linecap:butt;stroke-linejoin:miter;stroke-miterlimit:4;stroke-dasharray:none;stroke-opacity:1"
       d="M 9.7624953,268.64579 H 4.7624965"
       id="path1516" />
    <path
       inkscape:connector-curvature="0"
       style="fill:none;stroke:#ff0000;stroke-width:0.1;stroke-linecap:butt;stroke-linejoin:miter;stroke-miterlimit:4;stroke-dasharray:none;stroke-opacity:1"
       d="m 9.7624953,268.64579 v 25"
       id="path1514" />
    <path
       inkscape:connector-curvature="0"
       style="fill:none;stroke:#ff0000;stroke-width:0.1;stroke-linecap:butt;stroke-linejoin:miter;stroke-miterlimit:4;stroke-dasharray:none;stroke-opacity:1"
       d="m 9.7624953,144.64579 v 25"
       id="path1512" />
    <path
       inkscape:connector-curvature="0"
       style="fill:none;stroke:#ff0000;stroke-width:0.1;stroke-linecap:butt;stroke-linejoin:miter;stroke-miterlimit:4;stroke-dasharray:none;stroke-opacity:1"
       d="M 9.7624953,169.64579 H 4.7624965"
       id="path1510" />
    <path
       inkscape:connector-curvature="0"
       style="fill:none;stroke:#ff0000;stroke-width:0.1;stroke-linecap:butt;stroke-linejoin:miter;stroke-miterlimit:4;stroke-dasharray:none;stroke-opacity:1"
       d="m 290.76248,169.64579 h -5"
       id="path1508" />
    <path
       inkscape:connector-curvature="0"
       style="fill:none;stroke:#ff0000;stroke-width:0.1;stroke-linecap:butt;stroke-linejoin:miter;stroke-miterlimit:4;stroke-dasharray:none;stroke-opacity:1"
       d="m 285.76248,144.64579 v 25"
       id="path1506" />
    <path
       inkscape:connector-curvature="0"
       style="fill:none;stroke:#ff0000;stroke-width:0.1;stroke-linecap:butt;stroke-linejoin:miter;stroke-miterlimit:4;stroke-dasharray:none;stroke-opacity:1"
       d="m 285.76248,268.64579 v 25"
       id="path1504" />
    <path
       inkscape:connector-curvature="0"
       style="fill:none;stroke:#ff0000;stroke-width:0.1;stroke-linecap:butt;stroke-linejoin:miter;stroke-miterlimit:4;stroke-dasharray:none;stroke-opacity:1"
       d="m 290.76248,268.64579 h -5"
       id="path1502" />
    <path
       inkscape:connector-curvature="0"
       style="fill:none;stroke:#ff0000;stroke-width:0.1;stroke-linecap:butt;stroke-linejoin:miter;stroke-miterlimit:4;stroke-dasharray:none;stroke-opacity:1"
       d="m 29.762495,293.64579 v -5"
       id="path1500" />
    <path
       inkscape:connector-curvature="0"
       style="fill:none;stroke:#ff0000;stroke-width:0.1;stroke-linecap:butt;stroke-linejoin:miter;stroke-miterlimit:4;stroke-dasharray:none;stroke-opacity:1"
       d="M 265.76248,288.64579 H 29.762495"
       id="path1498" />
    <path
       inkscape:connector-curvature="0"
       style="fill:none;stroke:#ff0000;stroke-width:0.1;stroke-linecap:butt;stroke-linejoin:miter;stroke-miterlimit:4;stroke-dasharray:none;stroke-opacity:1"
       d="m 265.76248,293.64579 v -5"
       id="path1496" />
    <path
       inkscape:connector-curvature="0"
       style="fill:none;stroke:#ff0000;stroke-width:0.1;stroke-linecap:butt;stroke-linejoin:miter;stroke-miterlimit:4;stroke-dasharray:none;stroke-opacity:1"
       d="m 265.18208,249.26066 -23.78828,23.78828 c -1.37108,1.37108 -3.51776,1.43198 -4.81318,0.13656 -1.29543,-1.29543 -1.23452,-3.4421 0.13656,-4.81318 l 23.78828,-23.78829 c 1.37108,-1.37108 3.51776,-1.43199 4.81319,-0.13656 1.29542,1.29542 1.23451,3.44211 -0.13657,4.81319 z"
       id="path1494" />
    <path
       inkscape:connector-curvature="0"
       style="fill:none;stroke:#ff0000;stroke-width:0.1;stroke-linecap:butt;stroke-linejoin:miter;stroke-miterlimit:4;stroke-dasharray:none;stroke-opacity:1"
       d="m 265.18207,185.76087 -87.28806,87.28805 c -1.37108,1.37108 -3.51775,1.43199 -4.81318,0.13657 -1.29543,-1.29543 -1.23452,-3.44211 0.13656,-4.81319 l 87.28806,-87.28805 c 1.37108,-1.37108 3.51776,-1.43199 4.81318,-0.13657 1.29543,1.29543 1.23452,3.44211 -0.13656,4.81319 z"
       id="path1492" />
    <path
       inkscape:connector-curvature="0"
       style="fill:none;stroke:#ff0000;stroke-width:0.1;stroke-linecap:butt;stroke-linejoin:miter;stroke-miterlimit:4;stroke-dasharray:none;stroke-opacity:1"
       d="m 265.18207,201.63581 -71.41311,71.41311 c -1.37108,1.37108 -3.51776,1.43199 -4.81319,0.13657 -1.29542,-1.29543 -1.23451,-3.44211 0.13657,-4.81319 l 71.41311,-71.41311 c 1.37108,-1.37108 3.51776,-1.43199 4.81318,-0.13656 1.29543,1.29542 1.23452,3.4421 -0.13656,4.81318 z"
       id="path1490" />
    <path
       inkscape:connector-curvature="0"
       style="fill:none;stroke:#ff0000;stroke-width:0.1;stroke-linecap:butt;stroke-linejoin:miter;stroke-miterlimit:4;stroke-dasharray:none;stroke-opacity:1"
       d="m 265.18206,217.51075 -55.53817,55.53817 c -1.37108,1.37108 -3.51776,1.43198 -4.81318,0.13656 -1.29543,-1.29543 -1.23452,-3.44211 0.13656,-4.81319 l 55.53816,-55.53817 c 1.37108,-1.37108 3.51777,-1.43198 4.81319,-0.13656 1.29542,1.29542 1.23452,3.44211 -0.13656,4.81319 z"
       id="path1488" />
    <path
       inkscape:connector-curvature="0"
       style="fill:none;stroke:#ff0000;stroke-width:0.1;stroke-linecap:butt;stroke-linejoin:miter;stroke-miterlimit:4;stroke-dasharray:none;stroke-opacity:1"
       d="m 265.18206,233.38569 -39.66322,39.66323 c -1.37108,1.37108 -3.51777,1.43198 -4.81319,0.13656 -1.29542,-1.29543 -1.23451,-3.4421 0.13657,-4.81318 l 39.66322,-39.66323 c 1.37108,-1.37108 3.51776,-1.43199 4.81318,-0.13656 1.29542,1.29542 1.23452,3.4421 -0.13656,4.81318 z"
       id="path1486" />
    <path
       inkscape:connector-curvature="0"
       style="fill:none;stroke:#ff0000;stroke-width:0.1;stroke-linecap:butt;stroke-linejoin:miter;stroke-miterlimit:4;stroke-dasharray:none;stroke-opacity:1"
       d="m 58.768455,169.92517 -23.74895,23.74895 c -1.37108,1.37108 -3.51776,1.43199 -4.81318,0.13656 -1.29542,-1.29542 -1.23452,-3.4421 0.13656,-4.81318 l 23.74895,-23.74895 c 1.37108,-1.37108 3.51776,-1.43198 4.81318,-0.13656 1.29543,1.29542 1.23452,3.4421 -0.13656,4.81318 z"
       id="path1484" />
    <path
       inkscape:connector-curvature="0"
       style="fill:none;stroke:#ff0000;stroke-width:0.1;stroke-linecap:butt;stroke-linejoin:miter;stroke-miterlimit:4;stroke-dasharray:none;stroke-opacity:1"
       d="m 74.643395,169.92517 -39.62388,39.62389 c -1.37108,1.37108 -3.51776,1.43199 -4.81319,0.13657 -1.29542,-1.29543 -1.23452,-3.44211 0.13656,-4.81319 l 39.62389,-39.62389 c 1.37108,-1.37108 3.51776,-1.43198 4.81319,-0.13656 1.29542,1.29542 1.23451,3.4421 -0.13657,4.81318 z"
       id="path1482" />
    <path
       inkscape:connector-curvature="0"
       style="fill:none;stroke:#ff0000;stroke-width:0.1;stroke-linecap:butt;stroke-linejoin:miter;stroke-miterlimit:4;stroke-dasharray:none;stroke-opacity:1"
       d="M 90.518345,169.92518 35.019515,225.424 c -1.37108,1.37108 -3.51776,1.43199 -4.81318,0.13656 -1.29543,-1.29542 -1.23452,-3.4421 0.13656,-4.81318 l 55.49883,-55.49883 c 1.37108,-1.37108 3.51776,-1.43198 4.81318,-0.13656 1.29542,1.29542 1.23452,3.44211 -0.13656,4.81319 z"
       id="path1480" />
    <path
       inkscape:connector-curvature="0"
       style="fill:none;stroke:#ff0000;stroke-width:0.1;stroke-linecap:butt;stroke-linejoin:miter;stroke-miterlimit:4;stroke-dasharray:none;stroke-opacity:1"
       d="m 106.39327,169.92518 -71.373755,71.37376 c -1.37108,1.37108 -3.51776,1.43199 -4.81318,0.13657 -1.29543,-1.29543 -1.23452,-3.44211 0.13656,-4.81319 l 71.373755,-71.37377 c 1.37108,-1.37108 3.51776,-1.43198 4.81318,-0.13656 1.29543,1.29542 1.23452,3.44211 -0.13656,4.81319 z"
       id="path1478" />
    <path
       inkscape:connector-curvature="0"
       style="fill:none;stroke:#ff0000;stroke-width:0.1;stroke-linecap:butt;stroke-linejoin:miter;stroke-miterlimit:4;stroke-dasharray:none;stroke-opacity:1"
       d="m 122.26828,169.9252 -87.248715,87.24873 c -1.37108,1.37108 -3.51776,1.43199 -4.81319,0.13656 -1.29542,-1.29542 -1.23451,-3.4421 0.13657,-4.81318 l 87.248715,-87.24873 c 1.37108,-1.37108 3.51776,-1.43199 4.81318,-0.13657 1.29543,1.29543 1.23452,3.44211 -0.13656,4.81319 z"
       id="path1476" />
    <path
       inkscape:connector-curvature="0"
       style="fill:none;stroke:#ff0000;stroke-width:0.1;stroke-linecap:butt;stroke-linejoin:miter;stroke-miterlimit:4;stroke-dasharray:none;stroke-opacity:1"
       d="M 265.14872,169.9192 162.01908,273.04884 c -1.37108,1.37108 -3.51776,1.43199 -4.81319,0.13657 -1.29542,-1.29543 -1.23451,-3.44211 0.13657,-4.81319 L 260.4721,165.24265 c 1.37108,-1.37108 3.51776,-1.43199 4.81318,-0.13656 1.29543,1.29542 1.23452,3.4421 -0.13656,4.81318 z"
       id="path1474" />
    <path
       inkscape:connector-curvature="0"
       style="fill:none;stroke:#ff0000;stroke-width:0.1;stroke-linecap:butt;stroke-linejoin:miter;stroke-miterlimit:4;stroke-dasharray:none;stroke-opacity:1"
       d="M 138.14916,169.9192 35.019535,273.04883 c -1.37108,1.37108 -3.51776,1.43199 -4.81318,0.13657 -1.29543,-1.29543 -1.23452,-3.44211 0.13656,-4.81319 L 133.47253,165.24265 c 1.37108,-1.37108 3.51776,-1.43199 4.81319,-0.13657 1.29542,1.29543 1.23452,3.44211 -0.13656,4.81319 z"
       id="path1472" />
    <path
       inkscape:connector-curvature="0"
       style="fill:none;stroke:#ff0000;stroke-width:0.1;stroke-linecap:butt;stroke-linejoin:miter;stroke-miterlimit:4;stroke-dasharray:none;stroke-opacity:1"
       d="M 154.0241,169.9192 50.894475,273.04883 c -1.37108,1.37108 -3.51776,1.43199 -4.81318,0.13657 -1.29543,-1.29543 -1.23452,-3.44211 0.13656,-4.81319 L 149.34748,165.24265 c 1.37108,-1.37108 3.51776,-1.43199 4.81318,-0.13657 1.29543,1.29543 1.23452,3.44211 -0.13656,4.81319 z"
       id="path1470" />
    <path
       inkscape:connector-curvature="0"
       style="fill:none;stroke:#ff0000;stroke-width:0.1;stroke-linecap:butt;stroke-linejoin:miter;stroke-miterlimit:4;stroke-dasharray:none;stroke-opacity:1"
       d="M 169.89904,169.9192 66.769405,273.04885 c -1.37108,1.37108 -3.51776,1.43198 -4.81318,0.13656 -1.29543,-1.29542 -1.23452,-3.4421 0.13656,-4.81318 L 165.22241,165.24265 c 1.37108,-1.37108 3.51776,-1.43198 4.81319,-0.13656 1.29542,1.29542 1.23452,3.4421 -0.13656,4.81318 z"
       id="path1468" />
    <path
       inkscape:connector-curvature="0"
       style="fill:none;stroke:#ff0000;stroke-width:0.1;stroke-linecap:butt;stroke-linejoin:miter;stroke-miterlimit:4;stroke-dasharray:none;stroke-opacity:1"
       d="M 185.774,169.91923 82.644375,273.04887 c -1.37108,1.37108 -3.51776,1.43199 -4.81319,0.13656 -1.29542,-1.29542 -1.23451,-3.4421 0.13657,-4.81318 L 181.09738,165.24268 c 1.37108,-1.37108 3.51776,-1.43199 4.81318,-0.13657 1.29543,1.29543 1.23452,3.44211 -0.13656,4.81319 z"
       id="path1466" />
    <path
       inkscape:connector-curvature="0"
       style="fill:none;stroke:#ff0000;stroke-width:0.1;stroke-linecap:butt;stroke-linejoin:miter;stroke-miterlimit:4;stroke-dasharray:none;stroke-opacity:1"
       d="M 201.64893,169.91922 98.519289,273.04887 c -1.371074,1.37108 -3.517754,1.43198 -4.813174,0.13656 -1.29542,-1.29542 -1.23452,-3.44211 0.13656,-4.81319 L 196.97231,165.24267 c 1.37108,-1.37108 3.51776,-1.43198 4.81318,-0.13656 1.29542,1.29542 1.23452,3.4421 -0.13656,4.81318 z"
       id="path1464" />
    <path
       inkscape:connector-curvature="0"
       style="fill:none;stroke:#ff0000;stroke-width:0.1;stroke-linecap:butt;stroke-linejoin:miter;stroke-miterlimit:4;stroke-dasharray:none;stroke-opacity:1"
       d="M 217.52387,169.91922 114.39423,273.04887 c -1.37108,1.37108 -3.51776,1.43198 -4.81319,0.13656 -1.29542,-1.29542 -1.23451,-3.4421 0.13657,-4.81318 L 212.84725,165.24267 c 1.37108,-1.37108 3.51776,-1.43198 4.81318,-0.13656 1.29543,1.29542 1.23452,3.4421 -0.13656,4.81318 z"
       id="path1462" />
    <path
       inkscape:connector-curvature="0"
       style="fill:none;stroke:#ff0000;stroke-width:0.1;stroke-linecap:butt;stroke-linejoin:miter;stroke-miterlimit:4;stroke-dasharray:none;stroke-opacity:1"
       d="M 233.39881,169.91922 130.26917,273.04886 c -1.37108,1.37108 -3.51776,1.43199 -4.81319,0.13657 -1.29542,-1.29543 -1.23451,-3.44211 0.13657,-4.81319 L 228.72219,165.24267 c 1.37108,-1.37108 3.51776,-1.43199 4.81318,-0.13656 1.29543,1.29542 1.23452,3.4421 -0.13656,4.81318 z"
       id="path1460" />
    <path
       inkscape:connector-curvature="0"
       style="fill:none;stroke:#ff0000;stroke-width:0.1;stroke-linecap:butt;stroke-linejoin:miter;stroke-miterlimit:4;stroke-dasharray:none;stroke-opacity:1"
       d="M 249.27376,169.91922 146.14413,273.04885 c -1.37108,1.37108 -3.51776,1.43199 -4.81319,0.13656 -1.29542,-1.29542 -1.23451,-3.4421 0.13657,-4.81318 L 244.59714,165.24266 c 1.37108,-1.37108 3.51776,-1.43198 4.81318,-0.13656 1.29543,1.29543 1.23452,3.44211 -0.13656,4.81319 z"
       id="path1458" />
    <path
       style="fill:none;stroke:#ff0000;stroke-width:0.1;stroke-linecap:butt;stroke-linejoin:miter;stroke-miterlimit:4;stroke-dasharray:none;stroke-opacity:1"
       d="m 274.26254,3.145879 c 0.831,0 1.5,0.669 1.5,1.5 0,0.831 -0.669,1.5 -1.5,1.5 -0.831,0 -1.5,-0.669 -1.5,-1.5 0,-0.831 0.669,-1.5 1.5,-1.5 z"
       id="path1418"
       inkscape:connector-curvature="0" />
    <path
       style="fill:none;stroke:#ff0000;stroke-width:0.1;stroke-linecap:butt;stroke-linejoin:miter;stroke-miterlimit:4;stroke-dasharray:none;stroke-opacity:1"
       d="m 21.262504,3.145879 c 0.831,0 1.5,0.669 1.5,1.5 0,0.831 -0.669,1.5 -1.5,1.5 -0.831,0 -1.5,-0.669 -1.5,-1.5 0,-0.831 0.669,-1.5 1.5,-1.5 z"
       id="path1416"
       inkscape:connector-curvature="0" />
    <path
       style="fill:none;stroke:#ff0000;stroke-width:0.1;stroke-linecap:butt;stroke-linejoin:miter;stroke-miterlimit:4;stroke-dasharray:none;stroke-opacity:1"
       d="m 21.262504,136.14587 c 0.831,0 1.5,0.669 1.5,1.5 0,0.831 -0.669,1.5 -1.5,1.5 -0.831,0 -1.5,-0.669 -1.5,-1.5 0,-0.831 0.669,-1.5 1.5,-1.5 z"
       id="path1414"
       inkscape:connector-curvature="0" />
    <path
       style="fill:none;stroke:#ff0000;stroke-width:0.1;stroke-linecap:butt;stroke-linejoin:miter;stroke-miterlimit:4;stroke-dasharray:none;stroke-opacity:1"
       d="m 105.59583,136.14587 c 0.831,0 1.5,0.669 1.5,1.5 0,0.831 -0.669,1.5 -1.5,1.5 -0.831,0 -1.5,-0.669 -1.5,-1.5 0,-0.831 0.669,-1.5 1.5,-1.5 z"
       id="path1412"
       inkscape:connector-curvature="0" />
    <path
       style="fill:none;stroke:#ff0000;stroke-width:0.1;stroke-linecap:butt;stroke-linejoin:miter;stroke-miterlimit:4;stroke-dasharray:none;stroke-opacity:1"
       d="m 189.92918,136.14587 c 0.831,0 1.5,0.669 1.5,1.5 0,0.831 -0.669,1.5 -1.5,1.5 -0.831,0 -1.5,-0.669 -1.5,-1.5 0,-0.831 0.669,-1.5 1.5,-1.5 z"
       id="path1410"
       inkscape:connector-curvature="0" />
    <path
       style="fill:none;stroke:#ff0000;stroke-width:0.1;stroke-linecap:butt;stroke-linejoin:miter;stroke-miterlimit:4;stroke-dasharray:none;stroke-opacity:1"
       d="m 274.26251,136.14587 c 0.831,0 1.5,0.669 1.5,1.5 0,0.831 -0.669,1.5 -1.5,1.5 -0.831,0 -1.5,-0.669 -1.5,-1.5 0,-0.831 0.669,-1.5 1.5,-1.5 z"
       id="path1408"
       inkscape:connector-curvature="0" />
    <path
       style="fill:none;stroke:#ff0000;stroke-width:0.1;stroke-linecap:butt;stroke-linejoin:miter;stroke-miterlimit:4;stroke-dasharray:none;stroke-opacity:1"
       d="m 285.76251,20.645833 h 5"
       id="path1406"
       inkscape:connector-curvature="0" />
    <path
       style="fill:none;stroke:#ff0000;stroke-width:0.1;stroke-linecap:butt;stroke-linejoin:miter;stroke-miterlimit:4;stroke-dasharray:none;stroke-opacity:1"
       d="M 285.76251,20.645833 V -4.3541667"
       id="path1404"
       inkscape:connector-curvature="0" />
    <path
       style="fill:none;stroke:#ff0000;stroke-width:0.1;stroke-linecap:butt;stroke-linejoin:miter;stroke-miterlimit:4;stroke-dasharray:none;stroke-opacity:1"
       d="m 285.76251,144.64583 v -25"
       id="path1402"
       inkscape:connector-curvature="0" />
    <path
       style="fill:none;stroke:#ff0000;stroke-width:0.1;stroke-linecap:butt;stroke-linejoin:miter;stroke-miterlimit:4;stroke-dasharray:none;stroke-opacity:1"
       d="m 285.76251,119.64583 h 5"
       id="path1400"
       inkscape:connector-curvature="0" />
    <path
       style="fill:none;stroke:#ff0000;stroke-width:0.1;stroke-linecap:butt;stroke-linejoin:miter;stroke-miterlimit:4;stroke-dasharray:none;stroke-opacity:1"
       d="M 4.7625007,119.64583 H 9.7625003"
       id="path1398"
       inkscape:connector-curvature="0" />
    <path
       style="fill:none;stroke:#ff0000;stroke-width:0.1;stroke-linecap:butt;stroke-linejoin:miter;stroke-miterlimit:4;stroke-dasharray:none;stroke-opacity:1"
       d="m 9.7625013,144.64583 -1e-6,-25"
       id="path1396"
       inkscape:connector-curvature="0" />
    <path
       style="fill:none;stroke:#ff0000;stroke-width:0.1;stroke-linecap:butt;stroke-linejoin:miter;stroke-miterlimit:4;stroke-dasharray:none;stroke-opacity:1"
       d="M 9.7625013,20.645833 V -4.3541667"
       id="path1394"
       inkscape:connector-curvature="0" />
    <path
       style="fill:none;stroke:#ff0000;stroke-width:0.1;stroke-linecap:butt;stroke-linejoin:miter;stroke-miterlimit:4;stroke-dasharray:none;stroke-opacity:1"
       d="M 4.7625026,20.645833 H 9.7625023"
       id="path1392"
       inkscape:connector-curvature="0" />
    <path
       style="fill:none;stroke:#ff0000;stroke-width:0.1;stroke-linecap:butt;stroke-linejoin:miter;stroke-miterlimit:4;stroke-dasharray:none;stroke-opacity:1"
       d="m 265.76248,-4.35417 v 5"
       id="path1390"
       inkscape:connector-curvature="0" />
    <path
       style="fill:none;stroke:#ff0000;stroke-width:0.1;stroke-linecap:butt;stroke-linejoin:miter;stroke-miterlimit:4;stroke-dasharray:none;stroke-opacity:1"
       d="M 29.7625,0.64583 H 265.76248"
       id="path1388"
       inkscape:connector-curvature="0" />
    <path
       style="fill:none;stroke:#ff0000;stroke-width:0.1;stroke-linecap:butt;stroke-linejoin:miter;stroke-miterlimit:4;stroke-dasharray:none;stroke-opacity:1"
       d="m 29.762499,-4.35417 1e-6,5"
       id="path1386"
       inkscape:connector-curvature="0" />
    <path
       style="fill:none;stroke:#ff0000;stroke-width:0.1;stroke-linecap:butt;stroke-linejoin:miter;stroke-miterlimit:4;stroke-dasharray:none;stroke-opacity:1"
       d="m 30.3429,40.030965 23.78828,-23.78828 c 1.37108,-1.37108 3.51776,-1.431988 4.813184,-0.136564 1.295424,1.295424 1.234517,3.442105 -0.136563,4.813185 l -23.78828,23.78828 c -1.37108,1.37108 -3.517761,1.431987 -4.813184,0.136563 -1.295424,-1.295424 -1.234517,-3.442104 0.136563,-4.813184 z"
       id="path1384"
       inkscape:connector-curvature="0" />
    <path
       style="fill:none;stroke:#ff0000;stroke-width:0.1;stroke-linecap:butt;stroke-linejoin:miter;stroke-miterlimit:4;stroke-dasharray:none;stroke-opacity:1"
       d="M 30.342901,103.53076 117.63094,16.2427 c 1.37108,-1.37108 3.51776,-1.431988 4.81319,-0.136563 1.29542,1.295426 1.23451,3.442104 -0.13657,4.813184 L 35.019522,108.20738 c -1.37108,1.37108 -3.517757,1.43199 -4.813184,0.13656 -1.295424,-1.29542 -1.234517,-3.4421 0.136563,-4.81318 z"
       id="path1382"
       inkscape:connector-curvature="0" />
    <path
       style="fill:none;stroke:#ff0000;stroke-width:0.1;stroke-linecap:butt;stroke-linejoin:miter;stroke-miterlimit:4;stroke-dasharray:none;stroke-opacity:1"
       d="M 30.342901,87.655812 101.756,16.242699 c 1.37108,-1.37108 3.51776,-1.431987 4.81318,-0.136563 1.29543,1.295424 1.23452,3.442104 -0.13656,4.813184 L 35.019522,92.332433 c -1.37108,1.37108 -3.51776,1.431987 -4.813184,0.136564 -1.295424,-1.295424 -1.234517,-3.442105 0.136563,-4.813185 z"
       id="path1380"
       inkscape:connector-curvature="0" />
    <path
       style="fill:none;stroke:#ff0000;stroke-width:0.1;stroke-linecap:butt;stroke-linejoin:miter;stroke-miterlimit:4;stroke-dasharray:none;stroke-opacity:1"
       d="M 30.342913,71.780878 85.881082,16.242709 c 1.37108,-1.37108 3.51776,-1.431988 4.813184,-0.136564 1.295425,1.295425 1.234517,3.442105 -0.136563,4.813185 L 35.019534,76.457499 c -1.37108,1.37108 -3.51776,1.431987 -4.813184,0.136563 -1.295424,-1.295424 -1.234517,-3.442104 0.136563,-4.813184 z"
       id="path1378"
       inkscape:connector-curvature="0" />
    <path
       style="fill:none;stroke:#ff0000;stroke-width:0.1;stroke-linecap:butt;stroke-linejoin:miter;stroke-miterlimit:4;stroke-dasharray:none;stroke-opacity:1"
       d="M 30.342916,55.905936 70.00614,16.242712 c 1.37108,-1.37108 3.517761,-1.431988 4.813185,-0.136563 1.295424,1.295424 1.234517,3.442104 -0.136563,4.813184 L 35.019537,60.582557 c -1.37108,1.37108 -3.51776,1.431988 -4.813184,0.136564 -1.295424,-1.295425 -1.234517,-3.442105 0.136563,-4.813185 z"
       id="path1376"
       inkscape:connector-curvature="0" />
    <path
       style="fill:none;stroke:#ff0000;stroke-width:0.1;stroke-linecap:butt;stroke-linejoin:miter;stroke-miterlimit:4;stroke-dasharray:none;stroke-opacity:1"
       d="m 236.75652,119.36645 23.74895,-23.74894 c 1.37108,-1.37108 3.51775,-1.43199 4.81318,-0.136563 1.29542,1.295419 1.23452,3.442104 -0.13656,4.813183 l -23.74895,23.74894 c -1.37108,1.37108 -3.51776,1.43199 -4.81318,0.13657 -1.29543,-1.29543 -1.23452,-3.44211 0.13656,-4.81319 z"
       id="path1374"
       inkscape:connector-curvature="0" />
    <path
       style="fill:none;stroke:#ff0000;stroke-width:0.1;stroke-linecap:butt;stroke-linejoin:miter;stroke-miterlimit:4;stroke-dasharray:none;stroke-opacity:1"
       d="m 220.88158,119.36645 39.62389,-39.623883 c 1.37108,-1.37108 3.51775,-1.43199 4.81318,-0.136563 1.29542,1.295419 1.23452,3.442104 -0.13656,4.813184 L 225.5582,124.04307 c -1.37108,1.37108 -3.51776,1.43198 -4.81318,0.13656 -1.29543,-1.29542 -1.23452,-3.4421 0.13656,-4.81318 z"
       id="path1372"
       inkscape:connector-curvature="0" />
    <path
       style="fill:none;stroke:#ff0000;stroke-width:0.1;stroke-linecap:butt;stroke-linejoin:miter;stroke-miterlimit:4;stroke-dasharray:none;stroke-opacity:1"
       d="m 205.00664,119.36644 55.49882,-55.498823 c 1.37108,-1.37108 3.51776,-1.431983 4.81319,-0.136557 1.29542,1.29542 1.23452,3.442104 -0.13656,4.813184 l -55.49883,55.498826 c -1.37108,1.37108 -3.51776,1.43198 -4.81318,0.13656 -1.29543,-1.29543 -1.23452,-3.44211 0.13656,-4.81319 z"
       id="path1370"
       inkscape:connector-curvature="0" />
    <path
       style="fill:none;stroke:#ff0000;stroke-width:0.1;stroke-linecap:butt;stroke-linejoin:miter;stroke-miterlimit:4;stroke-dasharray:none;stroke-opacity:1"
       d="m 189.13169,119.36644 71.37377,-71.373766 c 1.37108,-1.37108 3.51776,-1.431983 4.81318,-0.136564 1.29543,1.295427 1.23452,3.442104 -0.13656,4.813184 l -71.37377,71.373766 c -1.37108,1.37108 -3.51775,1.43199 -4.81318,0.13656 -1.29542,-1.29542 -1.23452,-3.4421 0.13656,-4.81318 z"
       id="path1368"
       inkscape:connector-curvature="0" />
    <path
       style="fill:none;stroke:#ff0000;stroke-width:0.1;stroke-linecap:butt;stroke-linejoin:miter;stroke-miterlimit:4;stroke-dasharray:none;stroke-opacity:1"
       d="m 173.25668,119.36642 87.24874,-87.248732 c 1.37108,-1.37108 3.51776,-1.431983 4.81318,-0.136564 1.29543,1.295427 1.23452,3.442104 -0.13656,4.813184 L 177.9333,124.04304 c -1.37108,1.37108 -3.51775,1.43199 -4.81318,0.13656 -1.29542,-1.29542 -1.23452,-3.4421 0.13656,-4.81318 z"
       id="path1366"
       inkscape:connector-curvature="0" />
    <path
       style="fill:none;stroke:#ff0000;stroke-width:0.1;stroke-linecap:butt;stroke-linejoin:miter;stroke-miterlimit:4;stroke-dasharray:none;stroke-opacity:1"
       d="M 30.376255,119.37242 133.50588,16.242777 c 1.37108,-1.37108 3.51776,-1.43199 4.81318,-0.136563 1.29543,1.295426 1.23452,3.442104 -0.13656,4.813184 L 35.052875,124.04897 c -1.37108,1.37108 -3.517757,1.43199 -4.813184,0.13656 -1.295427,-1.29543 -1.234516,-3.4421 0.136564,-4.81318 z"
       id="path1364"
       inkscape:connector-curvature="0" />
    <path
       style="fill:none;stroke:#ff0000;stroke-width:0.1;stroke-linecap:butt;stroke-linejoin:miter;stroke-miterlimit:4;stroke-dasharray:none;stroke-opacity:1"
       d="M 157.37581,119.37242 260.50544,16.242787 c 1.37108,-1.371081 3.51777,-1.431984 4.81319,-0.136564 1.29543,1.295427 1.23452,3.442104 -0.13656,4.813184 L 162.05243,124.04897 c -1.37108,1.37108 -3.51776,1.43199 -4.81319,0.13657 -1.29542,-1.29542 -1.23451,-3.44211 0.13657,-4.81319 z"
       id="path1362"
       inkscape:connector-curvature="0" />
    <path
       style="fill:none;stroke:#ff0000;stroke-width:0.1;stroke-linecap:butt;stroke-linejoin:miter;stroke-miterlimit:4;stroke-dasharray:none;stroke-opacity:1"
       d="M 141.50086,119.37242 244.6305,16.242787 c 1.37108,-1.371081 3.51776,-1.431991 4.81319,-0.136564 1.29542,1.295427 1.23451,3.442104 -0.13657,4.813184 L 146.17748,124.04897 c -1.37108,1.37108 -3.51775,1.43199 -4.81318,0.13657 -1.29543,-1.29543 -1.23452,-3.44211 0.13656,-4.81319 z"
       id="path1360"
       inkscape:connector-curvature="0" />
    <path
       style="fill:none;stroke:#ff0000;stroke-width:0.1;stroke-linecap:butt;stroke-linejoin:miter;stroke-miterlimit:4;stroke-dasharray:none;stroke-opacity:1"
       d="M 125.62593,119.37242 228.75557,16.242779 c 1.37108,-1.37108 3.51775,-1.43199 4.81318,-0.136563 1.29543,1.295427 1.23452,3.442104 -0.13656,4.813184 L 130.30255,124.04897 c -1.37108,1.37108 -3.51776,1.43199 -4.81319,0.13656 -1.29542,-1.29542 -1.23451,-3.4421 0.13657,-4.81318 z"
       id="path1358"
       inkscape:connector-curvature="0" />
    <path
       style="fill:none;stroke:#ff0000;stroke-width:0.1;stroke-linecap:butt;stroke-linejoin:miter;stroke-miterlimit:4;stroke-dasharray:none;stroke-opacity:1"
       d="M 109.75097,119.37239 212.88061,16.242751 c 1.37108,-1.37108 3.51776,-1.43199 4.81318,-0.136563 1.29543,1.295426 1.23452,3.442104 -0.13656,4.813184 L 114.42759,124.04894 c -1.37108,1.37108 -3.51776,1.43199 -4.81319,0.13657 -1.29542,-1.29543 -1.23451,-3.44211 0.13657,-4.81319 z"
       id="path1356"
       inkscape:connector-curvature="0" />
    <path
       style="fill:none;stroke:#ff0000;stroke-width:0.1;stroke-linecap:butt;stroke-linejoin:miter;stroke-miterlimit:4;stroke-dasharray:none;stroke-opacity:1"
       d="M 93.87605,119.3724 197.00567,16.242688 c 1.37108,-1.37108 3.51777,-1.431983 4.81319,-0.136563 1.29542,1.295426 1.23451,3.442104 -0.13657,4.813184 L 98.552669,124.04895 c -1.371079,1.37108 -3.517756,1.43199 -4.813182,0.13656 -1.29542,-1.29542 -1.234517,-3.4421 0.136563,-4.81318 z"
       id="path1354"
       inkscape:connector-curvature="0" />
    <path
       style="fill:none;stroke:#ff0000;stroke-width:0.1;stroke-linecap:butt;stroke-linejoin:miter;stroke-miterlimit:4;stroke-dasharray:none;stroke-opacity:1"
       d="M 78.001106,119.3724 181.13073,16.242688 c 1.37108,-1.37108 3.51776,-1.431983 4.81318,-0.136563 1.29543,1.295426 1.23452,3.442104 -0.13656,4.813184 L 82.677727,124.04895 c -1.37108,1.37108 -3.517758,1.43199 -4.813184,0.13656 -1.29542,-1.29542 -1.234517,-3.4421 0.136563,-4.81318 z"
       id="path1352"
       inkscape:connector-curvature="0" />
    <path
       style="fill:none;stroke:#ff0000;stroke-width:0.1;stroke-linecap:butt;stroke-linejoin:miter;stroke-miterlimit:4;stroke-dasharray:none;stroke-opacity:1"
       d="M 62.126161,119.3724 165.25579,16.242688 c 1.37108,-1.37108 3.51776,-1.431983 4.81318,-0.136563 1.29543,1.295426 1.23452,3.442104 -0.13656,4.813184 L 66.802781,124.04895 c -1.37108,1.37108 -3.517757,1.43199 -4.813184,0.13656 -1.295419,-1.29542 -1.234516,-3.4421 0.136564,-4.81318 z"
       id="path1350"
       inkscape:connector-curvature="0" />
    <path
       style="fill:none;stroke:#ff0000;stroke-width:0.1;stroke-linecap:butt;stroke-linejoin:miter;stroke-miterlimit:4;stroke-dasharray:none;stroke-opacity:1"
       d="M 46.251206,119.37241 149.38083,16.242699 c 1.37108,-1.37108 3.51777,-1.431983 4.81319,-0.136564 1.29542,1.295427 1.23451,3.442104 -0.13657,4.813184 L 50.927827,124.04896 c -1.37108,1.37108 -3.517758,1.43199 -4.813184,0.13656 -1.29542,-1.29542 -1.234517,-3.4421 0.136563,-4.81318 z"
       id="path1348"
       inkscape:connector-curvature="0" />
  </g>
</svg>
